<svg width="820" height="504" viewBox="0 0 820 504" fill="none" xmlns="http://www.w3.org/2000/svg">
<g clip-path="url(#clip0_1447_30)">
<rect width="820" height="504" transform="matrix(1 0 0 -1 0 504)" fill="#E7FFF8"/>
<g filter="url(#filter0_i_1447_30)">
<path d="M610.377 0.0830869L763.509 163.215L763.511 388.251L867.875 504.093L0.0447677 504.091L0.0447987 253.079L0.044795 0.0830764L419.635 0.0830672L610.377 0.0830869Z" fill="#E7FFF8"/>
</g>
<ellipse cx="2.92856" cy="3.18181" rx="2.92856" ry="3.18181" transform="matrix(1 0 0 -1 771 43)" fill="#D4EEF6"/>
<ellipse cx="2.92856" cy="3.18181" rx="2.92856" ry="3.18181" transform="matrix(1 0 0 -1 771 33.4556)" fill="#D4EEF6"/>
<ellipse cx="2.92856" cy="3.18181" rx="2.92856" ry="3.18181" transform="matrix(1 0 0 -1 771 23.9106)" fill="#D4EEF6"/>
<ellipse cx="2.92856" cy="3.18181" rx="2.92856" ry="3.18181" transform="matrix(1 0 0 -1 771 14.3638)" fill="#D4EEF6"/>
<ellipse cx="2.92856" cy="3.18181" rx="2.92856" ry="3.18181" transform="matrix(1 0 0 -1 779.785 43)" fill="#D4EEF6"/>
<ellipse cx="2.92856" cy="3.18181" rx="2.92856" ry="3.18181" transform="matrix(1 0 0 -1 779.785 33.4556)" fill="#D4EEF6"/>
<ellipse cx="2.92856" cy="3.18181" rx="2.92856" ry="3.18181" transform="matrix(1 0 0 -1 779.785 23.9106)" fill="#D4EEF6"/>
<ellipse cx="2.92856" cy="3.18181" rx="2.92856" ry="3.18181" transform="matrix(1 0 0 -1 779.785 14.3638)" fill="#D4EEF6"/>
<ellipse cx="2.92856" cy="3.18181" rx="2.92856" ry="3.18181" transform="matrix(1 0 0 -1 788.57 43)" fill="#D4EEF6"/>
<ellipse cx="2.92856" cy="3.18181" rx="2.92856" ry="3.18181" transform="matrix(1 0 0 -1 788.57 33.4556)" fill="#D4EEF6"/>
<ellipse cx="2.92856" cy="3.18181" rx="2.92856" ry="3.18181" transform="matrix(1 0 0 -1 788.57 23.9106)" fill="#D4EEF6"/>
<ellipse cx="2.92856" cy="3.18181" rx="2.92856" ry="3.18181" transform="matrix(1 0 0 -1 788.57 14.3638)" fill="#D4EEF6"/>
<ellipse cx="2.92856" cy="3.18181" rx="2.92856" ry="3.18181" transform="matrix(1 0 0 -1 797.357 43)" fill="#D4EEF6"/>
<ellipse cx="2.92856" cy="3.18181" rx="2.92856" ry="3.18181" transform="matrix(1 0 0 -1 797.357 33.4556)" fill="#D4EEF6"/>
<ellipse cx="2.92856" cy="3.18181" rx="2.92856" ry="3.18181" transform="matrix(1 0 0 -1 797.357 23.9106)" fill="#D4EEF6"/>
<ellipse cx="2.92856" cy="3.18181" rx="2.92856" ry="3.18181" transform="matrix(1 0 0 -1 797.357 14.3638)" fill="#D4EEF6"/>
<ellipse cx="2.92856" cy="3.18181" rx="2.92856" ry="3.18181" transform="matrix(1 0 0 -1 806.143 43)" fill="#D4EEF6"/>
<ellipse cx="2.92856" cy="3.18181" rx="2.92856" ry="3.18181" transform="matrix(1 0 0 -1 806.143 33.4556)" fill="#D4EEF6"/>
<ellipse cx="2.92856" cy="3.18181" rx="2.92856" ry="3.18181" transform="matrix(1 0 0 -1 806.143 23.9106)" fill="#D4EEF6"/>
<ellipse cx="2.92856" cy="3.18181" rx="2.92856" ry="3.18181" transform="matrix(1 0 0 -1 806.143 14.3638)" fill="#D4EEF6"/>
<ellipse cx="2.92856" cy="3.21527" rx="2.92856" ry="3.21527" transform="matrix(1 0 0 -1 8 496)" fill="#F2FCFF"/>
<ellipse cx="2.92856" cy="3.21527" rx="2.92856" ry="3.21527" transform="matrix(1 0 0 -1 8 486.354)" fill="#F2FCFF"/>
<ellipse cx="2.92856" cy="3.21527" rx="2.92856" ry="3.21527" transform="matrix(1 0 0 -1 8 476.709)" fill="#F2FCFF"/>
<ellipse cx="2.92856" cy="3.21527" rx="2.92856" ry="3.21527" transform="matrix(1 0 0 -1 8 467.062)" fill="#F2FCFF"/>
<ellipse cx="2.92856" cy="3.21527" rx="2.92856" ry="3.21527" transform="matrix(1 0 0 -1 16.7852 496)" fill="#F2FCFF"/>
<ellipse cx="2.92856" cy="3.21527" rx="2.92856" ry="3.21527" transform="matrix(1 0 0 -1 16.7852 486.354)" fill="#F2FCFF"/>
<ellipse cx="2.92856" cy="3.21527" rx="2.92856" ry="3.21527" transform="matrix(1 0 0 -1 16.7852 476.709)" fill="#F2FCFF"/>
<ellipse cx="2.92856" cy="3.21527" rx="2.92856" ry="3.21527" transform="matrix(1 0 0 -1 16.7852 467.062)" fill="#F2FCFF"/>
<ellipse cx="2.92856" cy="3.21527" rx="2.92856" ry="3.21527" transform="matrix(1 0 0 -1 25.5703 496)" fill="#F2FCFF"/>
<ellipse cx="2.92856" cy="3.21527" rx="2.92856" ry="3.21527" transform="matrix(1 0 0 -1 25.5703 486.354)" fill="#F2FCFF"/>
<ellipse cx="2.92856" cy="3.21527" rx="2.92856" ry="3.21527" transform="matrix(1 0 0 -1 25.5703 476.709)" fill="#F2FCFF"/>
<ellipse cx="2.92856" cy="3.21527" rx="2.92856" ry="3.21527" transform="matrix(1 0 0 -1 25.5703 467.062)" fill="#F2FCFF"/>
<ellipse cx="2.92856" cy="3.21527" rx="2.92856" ry="3.21527" transform="matrix(1 0 0 -1 34.3574 496)" fill="#F2FCFF"/>
<ellipse cx="2.92856" cy="3.21527" rx="2.92856" ry="3.21527" transform="matrix(1 0 0 -1 34.3574 486.354)" fill="#F2FCFF"/>
<ellipse cx="2.92856" cy="3.21527" rx="2.92856" ry="3.21527" transform="matrix(1 0 0 -1 34.3574 476.709)" fill="#F2FCFF"/>
<ellipse cx="2.92856" cy="3.21527" rx="2.92856" ry="3.21527" transform="matrix(1 0 0 -1 34.3574 467.062)" fill="#F2FCFF"/>
<ellipse cx="2.92856" cy="3.21527" rx="2.92856" ry="3.21527" transform="matrix(1 0 0 -1 43.1426 496)" fill="#F2FCFF"/>
<ellipse cx="2.92856" cy="3.21527" rx="2.92856" ry="3.21527" transform="matrix(1 0 0 -1 43.1426 486.354)" fill="#F2FCFF"/>
<ellipse cx="2.92856" cy="3.21527" rx="2.92856" ry="3.21527" transform="matrix(1 0 0 -1 43.1426 476.709)" fill="#F2FCFF"/>
<ellipse cx="2.92856" cy="3.21527" rx="2.92856" ry="3.21527" transform="matrix(1 0 0 -1 43.1426 467.062)" fill="#F2FCFF"/>
<path d="M311.34 252L-21.9922 252" stroke="#C7F5E8" stroke-width="1.2"/>
<path d="M764.34 252L431.008 252" stroke="#C7F5E8" stroke-width="1.2"/>
<g filter="url(#filter1_bii_1447_30)">
<path d="M408.4 425L264 338.075V165.65L411.645 78.8982L556 162.402V338.075L408.4 425Z" fill="white" fill-opacity="0.1"/>
<path d="M408.142 425.428L408.397 425.582L408.654 425.431L556.254 338.506L556.5 338.361V338.075V162.402V162.114L556.25 161.969L411.895 78.4654L411.643 78.3194L411.392 78.4671L263.747 165.219L263.5 165.364V165.65V338.075V338.358L263.742 338.503L408.142 425.428Z" stroke="#C7F5E8"/>
</g>
<path d="M436.257 173.086L409.567 219.273L382.877 173.086H293.996L409.567 373.084L525.138 173.086H436.257Z" fill="#41B883"/>
<path d="M436.257 173.085L409.567 219.272L382.877 173.085H340.225L409.567 293.082L478.91 173.085H436.257Z" fill="#34495E"/>
</g>
<defs>
<filter id="filter0_i_1447_30" x="-6.56363" y="0.0830078" width="874.439" height="504.01" filterUnits="userSpaceOnUse" color-interpolation-filters="sRGB">
<feFlood flood-opacity="0" result="BackgroundImageFix"/>
<feBlend mode="normal" in="SourceGraphic" in2="BackgroundImageFix" result="shape"/>
<feColorMatrix in="SourceAlpha" type="matrix" values="0 0 0 0 0 0 0 0 0 0 0 0 0 0 0 0 0 0 127 0" result="hardAlpha"/>
<feOffset dx="-6.60856"/>
<feGaussianBlur stdDeviation="5.50713"/>
<feComposite in2="hardAlpha" operator="arithmetic" k2="-1" k3="1"/>
<feColorMatrix type="matrix" values="0 0 0 0 0 0 0 0 0 0 0 0 0 0 0 0 0 0 0.04 0"/>
<feBlend mode="normal" in2="shape" result="effect1_innerShadow_1447_30"/>
</filter>
<filter id="filter1_bii_1447_30" x="242.251" y="56.9913" width="335.499" height="389.922" filterUnits="userSpaceOnUse" color-interpolation-filters="sRGB">
<feFlood flood-opacity="0" result="BackgroundImageFix"/>
<feGaussianBlur in="BackgroundImageFix" stdDeviation="10.3747"/>
<feComposite in2="SourceAlpha" operator="in" result="effect1_backgroundBlur_1447_30"/>
<feBlend mode="normal" in="SourceGraphic" in2="effect1_backgroundBlur_1447_30" result="shape"/>
<feColorMatrix in="SourceAlpha" type="matrix" values="0 0 0 0 0 0 0 0 0 0 0 0 0 0 0 0 0 0 127 0" result="hardAlpha"/>
<feOffset dx="-2.07494" dy="2.07494"/>
<feGaussianBlur stdDeviation="1.03747"/>
<feComposite in2="hardAlpha" operator="arithmetic" k2="-1" k3="1"/>
<feColorMatrix type="matrix" values="0 0 0 0 1 0 0 0 0 1 0 0 0 0 1 0 0 0 0.4 0"/>
<feBlend mode="normal" in2="shape" result="effect2_innerShadow_1447_30"/>
<feColorMatrix in="SourceAlpha" type="matrix" values="0 0 0 0 0 0 0 0 0 0 0 0 0 0 0 0 0 0 127 0" result="hardAlpha"/>
<feOffset dx="2.07494" dy="-2.07494"/>
<feGaussianBlur stdDeviation="1.03747"/>
<feComposite in2="hardAlpha" operator="arithmetic" k2="-1" k3="1"/>
<feColorMatrix type="matrix" values="0 0 0 0 0.84 0 0 0 0 0.84 0 0 0 0 0.84 0 0 0 0.4 0"/>
<feBlend mode="normal" in2="effect2_innerShadow_1447_30" result="effect3_innerShadow_1447_30"/>
</filter>
<clipPath id="clip0_1447_30">
<rect width="820" height="504" fill="white" transform="matrix(1 0 0 -1 0 504)"/>
</clipPath>
</defs>
</svg>
